<?xml version="1.0" encoding="UTF-8" standalone="no"?>
<!-- Created with Inkscape (http://www.inkscape.org/) -->

<svg
   xmlns:dc="http://purl.org/dc/elements/1.1/"
   xmlns:cc="http://creativecommons.org/ns#"
   xmlns:rdf="http://www.w3.org/1999/02/22-rdf-syntax-ns#"
   xmlns:svg="http://www.w3.org/2000/svg"
   xmlns="http://www.w3.org/2000/svg"
   xmlns:xlink="http://www.w3.org/1999/xlink"
   xmlns:sodipodi="http://sodipodi.sourceforge.net/DTD/sodipodi-0.dtd"
   xmlns:inkscape="http://www.inkscape.org/namespaces/inkscape"
   width="378.82388mm"
   height="474.09024mm"
   viewBox="0 0 530.35346 663.72632"
   version="1.1"
   id="svg8"
   inkscape:version="0.92.3 (2405546, 2018-03-11)"
   sodipodi:docname="DiagramaEsquematico.svg">
  <sodipodi:namedview
     id="base"
     pagecolor="#ffffff"
     bordercolor="#666666"
     borderopacity="1.0"
     inkscape:pageopacity="0.0"
     inkscape:pageshadow="2"
     inkscape:zoom="0.17007042"
     inkscape:cx="894.60481"
     inkscape:cy="1136.3355"
     inkscape:document-units="mm"
     inkscape:current-layer="layer1"
     showgrid="false"
     scale-x="1.4"
     inkscape:window-width="1366"
     inkscape:window-height="739"
     inkscape:window-x="1920"
     inkscape:window-y="0"
     inkscape:window-maximized="1"
     fit-margin-top="0"
     fit-margin-left="0"
     fit-margin-right="0"
     fit-margin-bottom="0" />
  <defs
     id="defs2">
    <marker
       inkscape:isstock="true"
       style="overflow:visible"
       id="marker4062"
       refX="0"
       refY="0"
       orient="auto"
       inkscape:stockid="Arrow2Lstart">
      <path
         transform="matrix(1.1,0,0,1.1,1.1,0)"
         d="M 8.7185878,4.0337352 -2.2072895,0.01601326 8.7185884,-4.0017078 c -1.7454984,2.3720609 -1.7354408,5.6174519 -6e-7,8.035443 z"
         style="fill:#000000;fill-opacity:1;fill-rule:evenodd;stroke:#000000;stroke-width:0.625;stroke-linejoin:round;stroke-opacity:1"
         id="path4060"
         inkscape:connector-curvature="0" />
    </marker>
    <marker
       inkscape:collect="always"
       inkscape:stockid="Arrow2Lstart"
       orient="auto"
       refY="0"
       refX="0"
       id="marker3849"
       style="overflow:visible"
       inkscape:isstock="true">
      <path
         id="path3847"
         style="fill:#000000;fill-opacity:1;fill-rule:evenodd;stroke:#000000;stroke-width:0.625;stroke-linejoin:round;stroke-opacity:1"
         d="M 8.7185878,4.0337352 -2.2072895,0.01601326 8.7185884,-4.0017078 c -1.7454984,2.3720609 -1.7354408,5.6174519 -6e-7,8.035443 z"
         transform="matrix(1.1,0,0,1.1,1.1,0)"
         inkscape:connector-curvature="0" />
    </marker>
    <marker
       inkscape:isstock="true"
       style="overflow:visible"
       id="marker3815"
       refX="0"
       refY="0"
       orient="auto"
       inkscape:stockid="Arrow2Lend">
      <path
         transform="matrix(-1.1,0,0,-1.1,-1.1,0)"
         d="M 8.7185878,4.0337352 -2.2072895,0.01601326 8.7185884,-4.0017078 c -1.7454984,2.3720609 -1.7354408,5.6174519 -6e-7,8.035443 z"
         style="fill:#000000;fill-opacity:1;fill-rule:evenodd;stroke:#000000;stroke-width:0.625;stroke-linejoin:round;stroke-opacity:1"
         id="path3813"
         inkscape:connector-curvature="0" />
    </marker>
    <marker
       inkscape:collect="always"
       inkscape:stockid="Arrow2Lend"
       orient="auto"
       refY="0"
       refX="0"
       id="marker3755"
       style="overflow:visible"
       inkscape:isstock="true">
      <path
         id="path3753"
         style="fill:#000000;fill-opacity:1;fill-rule:evenodd;stroke:#000000;stroke-width:0.625;stroke-linejoin:round;stroke-opacity:1"
         d="M 8.7185878,4.0337352 -2.2072895,0.01601326 8.7185884,-4.0017078 c -1.7454984,2.3720609 -1.7354408,5.6174519 -6e-7,8.035443 z"
         transform="matrix(-1.1,0,0,-1.1,-1.1,0)"
         inkscape:connector-curvature="0" />
    </marker>
    <linearGradient
       id="linearGradient3557"
       inkscape:collect="always">
      <stop
         id="stop3553"
         offset="0"
         style="stop-color:#ffffff;stop-opacity:1;" />
      <stop
         id="stop3555"
         offset="1"
         style="stop-color:#ffffff;stop-opacity:0;" />
    </linearGradient>
    <marker
       inkscape:collect="always"
       inkscape:isstock="true"
       style="overflow:visible"
       id="marker3443"
       refX="0"
       refY="0"
       orient="auto"
       inkscape:stockid="Arrow2Lend">
      <path
         transform="matrix(-1.1,0,0,-1.1,-1.1,0)"
         d="M 8.7185878,4.0337352 -2.2072895,0.01601326 8.7185884,-4.0017078 c -1.7454984,2.3720609 -1.7354408,5.6174519 -6e-7,8.035443 z"
         style="fill:#000000;fill-opacity:1;fill-rule:evenodd;stroke:#000000;stroke-width:0.625;stroke-linejoin:round;stroke-opacity:1"
         id="path3441"
         inkscape:connector-curvature="0" />
    </marker>
    <marker
       inkscape:isstock="true"
       style="overflow:visible"
       id="Arrow2Lstart"
       refX="0"
       refY="0"
       orient="auto"
       inkscape:stockid="Arrow2Lstart">
      <path
         transform="matrix(1.1,0,0,1.1,1.1,0)"
         d="M 8.7185878,4.0337352 -2.2072895,0.01601326 8.7185884,-4.0017078 c -1.7454984,2.3720609 -1.7354408,5.6174519 -6e-7,8.035443 z"
         style="fill:#000000;fill-opacity:1;fill-rule:evenodd;stroke:#000000;stroke-width:0.625;stroke-linejoin:round;stroke-opacity:1"
         id="path1037"
         inkscape:connector-curvature="0" />
    </marker>
    <marker
       inkscape:isstock="true"
       style="overflow:visible"
       id="Arrow2Lend"
       refX="0"
       refY="0"
       orient="auto"
       inkscape:stockid="Arrow2Lend">
      <path
         transform="matrix(-1.1,0,0,-1.1,-1.1,0)"
         d="M 8.7185878,4.0337352 -2.2072895,0.01601326 8.7185884,-4.0017078 c -1.7454984,2.3720609 -1.7354408,5.6174519 -6e-7,8.035443 z"
         style="fill:#000000;fill-opacity:1;fill-rule:evenodd;stroke:#000000;stroke-width:0.625;stroke-linejoin:round;stroke-opacity:1"
         id="path1040"
         inkscape:connector-curvature="0" />
    </marker>
    <linearGradient
       gradientTransform="translate(1.6584715,-2.0135324)"
       gradientUnits="userSpaceOnUse"
       y2="254.08154"
       x2="522.0014"
       y1="245.77773"
       x1="523.96393"
       id="linearGradient3561"
       xlink:href="#linearGradient3557"
       inkscape:collect="always" />
    <linearGradient
       gradientTransform="translate(0.51293826,3.9840801)"
       gradientUnits="userSpaceOnUse"
       y2="-254.08154"
       x2="-522.0014"
       y1="-245.77773"
       x1="-523.96393"
       id="linearGradient3563"
       xlink:href="#linearGradient3557"
       inkscape:collect="always" />
    <marker
       inkscape:isstock="true"
       style="overflow:visible"
       id="marker4062-6"
       refX="0"
       refY="0"
       orient="auto"
       inkscape:stockid="Arrow2Lstart">
      <path
         inkscape:connector-curvature="0"
         transform="matrix(1.1,0,0,1.1,1.1,0)"
         d="M 8.7185878,4.0337352 -2.2072895,0.01601326 8.7185884,-4.0017078 c -1.7454984,2.3720609 -1.7354408,5.6174519 -6e-7,8.035443 z"
         style="fill:#000000;fill-opacity:1;fill-rule:evenodd;stroke:#000000;stroke-width:0.625;stroke-linejoin:round;stroke-opacity:1"
         id="path4060-2" />
    </marker>
    <marker
       inkscape:collect="always"
       inkscape:isstock="true"
       style="overflow:visible"
       id="marker3465-1"
       refX="0"
       refY="0"
       orient="auto"
       inkscape:stockid="Arrow2Lstart">
      <path
         inkscape:connector-curvature="0"
         transform="matrix(1.1,0,0,1.1,1.1,0)"
         d="M 8.7185878,4.0337352 -2.2072895,0.01601326 8.7185884,-4.0017078 c -1.7454984,2.3720609 -1.7354408,5.6174519 -6e-7,8.035443 z"
         style="fill:#000000;fill-opacity:1;fill-rule:evenodd;stroke:#000000;stroke-width:0.625;stroke-linejoin:round;stroke-opacity:1"
         id="path3463-2" />
    </marker>
  </defs>
  <metadata
     id="metadata5">
    <rdf:RDF>
      <cc:Work
         rdf:about="">
        <dc:format>image/svg+xml</dc:format>
        <dc:type
           rdf:resource="http://purl.org/dc/dcmitype/StillImage" />
        <dc:title></dc:title>
      </cc:Work>
    </rdf:RDF>
  </metadata>
  <g
     inkscape:label="Camada 1"
     inkscape:groupmode="layer"
     id="layer1"
     transform="translate(-40.642505,213.48654)">
    <ellipse
       style="opacity:1;fill:none;fill-opacity:1;fill-rule:nonzero;stroke:#000000;stroke-width:2.61789894;stroke-linecap:square;stroke-linejoin:miter;stroke-miterlimit:4;stroke-dasharray:none;stroke-dashoffset:0;stroke-opacity:1"
       id="path858"
       cx="150.34804"
       cy="110.29892"
       rx="15.418061"
       ry="15.839896" />
    <path
       style="fill:none;fill-rule:evenodd;stroke:#000000;stroke-width:3.46326208px;stroke-linecap:butt;stroke-linejoin:miter;stroke-opacity:1"
       d="M 162.77155,99.953425 442.86541,-24.57322"
       id="path887"
       inkscape:connector-curvature="0"
       sodipodi:nodetypes="cc" />
    <rect
       style="opacity:1;fill:#000000;fill-opacity:1;fill-rule:nonzero;stroke:#000000;stroke-width:2.61789894;stroke-linecap:square;stroke-linejoin:miter;stroke-miterlimit:4;stroke-dasharray:none;stroke-dashoffset:0;stroke-opacity:1"
       id="rect889"
       width="35.858837"
       height="58.598587"
       x="416.03452"
       y="127.17969"
       transform="rotate(-23.903897)" />
    <path
       style="opacity:1;fill:url(#linearGradient3563);fill-opacity:1;fill-rule:nonzero;stroke:#000000;stroke-width:2.61789894;stroke-linecap:square;stroke-linejoin:miter;stroke-miterlimit:4;stroke-dasharray:none;stroke-dashoffset:0;stroke-opacity:1"
       id="path893"
       sodipodi:type="arc"
       sodipodi:cx="-397.68988"
       sodipodi:cy="-99.5252"
       sodipodi:rx="38.386555"
       sodipodi:ry="9.9027176"
       sodipodi:start="0"
       sodipodi:end="3.1743699"
       d="m -359.30333,-99.5252 a 38.386555,9.9027176 0 0 1 -19.55762,8.629589 38.386555,9.9027176 0 0 1 -38.74399,-0.163817 38.386555,9.9027176 0 0 1 -18.45088,-8.790298 l 38.36594,0.324526 z"
       transform="rotate(159.57776)" />
    <path
       style="opacity:1;fill:url(#linearGradient3561);fill-opacity:1;fill-rule:nonzero;stroke:#000000;stroke-width:2.61789894;stroke-linecap:square;stroke-linejoin:miter;stroke-miterlimit:4;stroke-dasharray:none;stroke-dashoffset:0;stroke-opacity:1"
       id="path893-5"
       sodipodi:type="arc"
       sodipodi:cx="483.1084"
       sodipodi:cy="95.424767"
       sodipodi:rx="38.386555"
       sodipodi:ry="9.9027176"
       sodipodi:start="0"
       sodipodi:end="3.1743699"
       d="m 521.49495,95.424767 a 38.386555,9.9027176 0 0 1 -19.55763,8.629593 38.386555,9.9027176 0 0 1 -38.74398,-0.16382 38.386555,9.9027176 0 0 1 -18.45088,-8.790299 l 38.36594,0.324526 z"
       transform="rotate(-20.42224)" />
    <path
       style="opacity:1;fill:#000000;fill-opacity:1;fill-rule:nonzero;stroke:#000000;stroke-width:2.61789894;stroke-linecap:square;stroke-linejoin:miter;stroke-miterlimit:4;stroke-dasharray:none;stroke-dashoffset:0;stroke-opacity:1"
       id="path891"
       transform="rotate(155.2262)"
       sodipodi:type="arc"
       sodipodi:cx="-431.95926"
       sodipodi:cy="-131.76253"
       sodipodi:rx="4.6382976"
       sodipodi:ry="17.96389"
       sodipodi:start="0"
       sodipodi:end="3.1743786"
       d="m -427.32096,-131.76253 a 4.6382976,17.96389 0 0 1 -2.36319,15.65442 4.6382976,17.96389 0 0 1 -4.6815,-0.29725 4.6382976,17.96389 0 0 1 -2.22941,-15.94603 l 4.6358,0.58886 z" />
    <path
       style="fill:none;fill-rule:evenodd;stroke:#000000;stroke-width:3.46326208px;stroke-linecap:butt;stroke-linejoin:miter;stroke-opacity:1"
       d="M 165.63726,107.06497 447.7457,-18.536984"
       id="path887-3"
       inkscape:connector-curvature="0"
       sodipodi:nodetypes="cc" />
    <path
       style="fill:none;fill-rule:evenodd;stroke:#000000;stroke-width:2.74879384;stroke-linecap:butt;stroke-linejoin:miter;stroke-miterlimit:4;stroke-dasharray:10.99517592, 10.99517592;stroke-dashoffset:0;stroke-opacity:1"
       d="M 150.34806,25.038569 V 450.23979"
       id="path925"
       inkscape:connector-curvature="0"
       sodipodi:nodetypes="cc" />
    <g
       transform="translate(418.73538,-73.494221)"
       id="g3888">
      <path
         id="path942"
         d="m -69.996872,-123.68986 h 4.45367 c 3.457818,0 3.817431,0.73767 3.817431,2.06547 0,0.33195 0,0.87598 -0.313509,2.24989 -0.101429,0.23052 -0.147534,0.41493 -0.147534,0.51636 0,0.35962 0.276626,0.54403 0.553251,0.54403 0.461043,0 0.461043,-0.13831 0.691564,-0.96818 l 2.535733,-9.96774 c 0.129092,-0.49793 0.129092,-0.59936 0.129092,-0.72845 0,-0.0922 -0.09221,-0.50715 -0.553251,-0.50715 -0.461042,0 -0.497926,0.23053 -0.691564,0.96819 -0.958968,3.56847 -2.010144,4.40757 -5.919784,4.40757 h -4.177044 l 2.941451,-11.67359 c 0.396496,-1.61365 0.461042,-1.78885 2.471187,-1.78885 h 6.067318 c 5.652379,0 6.703556,1.51222 6.703556,5.04381 0,1.06961 0,1.24481 -0.129092,2.48962 -0.101429,0.59936 -0.101429,0.68235 -0.101429,0.82988 0,0.23052 0.138312,0.54403 0.562471,0.54403 0.497926,0 0.54403,-0.27663 0.636239,-1.15261 l 0.922085,-7.93915 c 0.138312,-1.23559 -0.09221,-1.23559 -1.244815,-1.23559 h -22.498868 c -0.922085,0 -1.383128,0 -1.383128,0.92209 0,0.49792 0.414939,0.49792 1.281698,0.49792 1.696636,0 2.978334,0 2.978334,0.82066 0,0.19363 0,0.27662 -0.230521,1.11572 l -6.048876,24.28771 c -0.461043,1.79807 -0.562472,2.15768 -4.195486,2.15768 -0.774551,0 -1.281698,0 -1.281698,0.8852 0,0.54403 0.54403,0.54403 0.691564,0.54403 1.327802,0 4.730295,-0.14753 6.067318,-0.14753 1.512219,0 5.32965,0.14753 6.841869,0.14753 0.414938,0 0.968189,0 0.968189,-0.87598 0,-0.35961 -0.276626,-0.45182 -0.276626,-0.50714 -0.147533,-0.0461 -0.230521,-0.0461 -1.281698,-0.0461 -1.023514,0 -1.254035,0 -2.388199,-0.083 -1.346244,-0.14753 -1.475336,-0.33195 -1.475336,-0.92208 0,-0.083 0,-0.37806 0.175196,-1.05118 z"
         inkscape:connector-curvature="0"
         style="font-style:normal;font-variant:normal;font-weight:normal;font-stretch:normal;letter-spacing:normal;word-spacing:normal;text-anchor:start;fill:#000000;fill-opacity:1;fill-rule:evenodd;stroke:#000000;stroke-width:0;stroke-linecap:butt;stroke-linejoin:miter;stroke-miterlimit:10.43299961;stroke-dasharray:none;stroke-dashoffset:0;stroke-opacity:1" />
      <path
         id="path944"
         d="m -50.870218,-109.22235 h 0.09221 0.09221 0.110651 0.11065 l 0.129092,-0.009 h 0.129092 l 0.129091,-0.009 h 0.147534 l 0.147534,-0.009 0.156754,-0.009 0.156754,-0.009 0.165976,-0.009 0.175196,-0.009 0.165975,-0.0184 0.359613,-0.0277 0.368834,-0.0369 0.368834,-0.0461 0.378055,-0.0553 0.368834,-0.0645 0.368833,-0.0738 0.184417,-0.0461 0.184417,-0.0369 0.175196,-0.0461 0.175197,-0.0553 0.165975,-0.0461 0.165975,-0.0553 c 2.378979,-0.8391 2.82158,-2.37898 2.82158,-3.34717 0,-1.7704 -1.770403,-2.82158 -3.992628,-2.82158 v 0.89442 c 1.420011,0 2.6095,0.70079 2.6095,1.92716 0,3.11665 -5.431079,3.11665 -6.814206,3.11665 h -1.567544 c 1.30936,-4.65653 4.887049,-5.04381 5.77225,-5.04381 v -0.89442 c -3.845093,0 -9.054872,2.95067 -9.054872,8.4463 0,3.23652 2.028586,6.03043 5.790692,6.03043 5.43108,0 7.966813,-3.17197 7.966813,-3.63301 0,-0.18442 -0.285846,-0.54403 -0.553251,-0.54403 -0.184417,0 -0.258184,0.0738 -0.516368,0.33195 -2.50807,2.95067 -6.260955,2.95067 -6.841869,2.95067 -1.927157,0 -3.208855,-1.2817 -3.208855,-3.8912 0,-0.4426 0,-1.08806 0.387276,-2.84924 z"
         inkscape:connector-curvature="0"
         style="font-style:normal;font-variant:normal;font-weight:normal;font-stretch:normal;letter-spacing:normal;word-spacing:normal;text-anchor:start;fill:#000000;fill-opacity:1;fill-rule:evenodd;stroke:#000000;stroke-width:0;stroke-linecap:butt;stroke-linejoin:miter;stroke-miterlimit:10.43299961;stroke-dasharray:none;stroke-dashoffset:0;stroke-opacity:1" />
    </g>
    <g
       transform="translate(416.45828,255.85866)"
       id="g3884">
      <path
         id="path946"
         d="m -5.3679495,-123.68986 h 4.44444869 c 3.45781791,0 3.81743101,0.73767 3.81743101,2.06547 0,0.33195 0,0.87598 -0.3135089,2.24989 -0.1014293,0.23052 -0.1475335,0.41493 -0.1475335,0.51636 0,0.35962 0.2766254,0.54403 0.5532509,0.54403 0.4610423,0 0.4610423,-0.13831 0.6915635,-0.96818 l 2.5357332,-9.96774 c 0.1290919,-0.49793 0.1290919,-0.59936 0.1290919,-0.72845 0,-0.0922 -0.092209,-0.50715 -0.5532509,-0.50715 -0.4610424,0 -0.4979258,0.23053 -0.6915636,0.96819 -0.9589682,3.56847 -2.0101448,4.40757 -5.91978429,4.40757 H -4.9991155 l 2.9414504,-11.67359 c 0.4057173,-1.61365 0.4610424,-1.78885 2.48040806,-1.78885 H 6.48084 c 5.65238,0 6.703556,1.51222 6.703556,5.04381 0,1.06961 0,1.24481 -0.129092,2.48962 -0.101429,0.59936 -0.101429,0.68235 -0.101429,0.82988 0,0.23052 0.147534,0.54403 0.562472,0.54403 0.507146,0 0.54403,-0.27663 0.636238,-1.15261 l 0.922085,-7.93915 c 0.138313,-1.23559 -0.09221,-1.23559 -1.244814,-1.23559 H -8.669013 c -0.9220847,0 -1.383127,0 -1.383127,0.92209 0,0.49792 0.414938,0.49792 1.2816977,0.49792 1.696636,0 2.9783338,0 2.9783338,0.82066 0,0.19363 0,0.27662 -0.2305211,1.11572 l -6.0488764,24.28771 c -0.461042,1.79807 -0.562472,2.15768 -4.195486,2.15768 -0.774551,0 -1.281697,0 -1.281697,0.8852 0,0.54403 0.55325,0.54403 0.691563,0.54403 1.327802,0 4.730295,-0.14753 6.067318,-0.14753 1.5122191,0 5.3296501,0.14753 6.8418691,0.14753 0.424159,0 0.968189,0 0.968189,-0.87598 0,-0.35961 -0.2766254,-0.45182 -0.2766254,-0.50714 -0.1383127,-0.0461 -0.2305212,-0.0461 -1.2816979,-0.0461 -1.0235141,0 -1.2540353,0 -2.3881995,-0.083 -1.3462438,-0.14753 -1.4753357,-0.33195 -1.4753357,-0.92208 0,-0.083 0,-0.37806 0.1751961,-1.05118 z"
         inkscape:connector-curvature="0"
         style="font-style:normal;font-variant:normal;font-weight:normal;font-stretch:normal;letter-spacing:normal;word-spacing:normal;text-anchor:start;fill:#000000;fill-opacity:1;fill-rule:evenodd;stroke:#000000;stroke-width:0;stroke-linecap:butt;stroke-linejoin:miter;stroke-miterlimit:10.43299961;stroke-dasharray:none;stroke-dashoffset:0;stroke-opacity:1" />
      <path
         id="path948"
         d="m 27.338398,-113.75901 0.0092,-0.0461 0.01844,-0.0369 0.0092,-0.0461 0.0092,-0.0369 0.0092,-0.0369 0.0092,-0.0369 0.0092,-0.0277 v -0.0369 l 0.0092,-0.0277 0.0092,-0.0277 v -0.0277 l 0.0092,-0.0277 v -0.0184 l 0.0092,-0.0277 v -0.0184 l 0.0092,-0.0184 v -0.0184 -0.0185 -0.0184 l 0.0092,-0.0184 v -0.009 -0.0184 -0.009 -0.009 -0.009 -0.009 -0.009 -0.009 -0.009 0 -0.009 -0.009 c 0,-0.70078 -0.571693,-1.01429 -1.097281,-1.01429 -0.728447,0 -1.337023,0.59935 -1.466115,1.21715 -0.54403,-0.87598 -1.641311,-1.82573 -3.310284,-1.82573 v 0.89442 c 2.249886,0 2.867683,2.40664 2.867683,2.73859 0,0.0553 0,0.11066 -0.101429,0.47027 l -1.438452,5.78147 c -0.138313,0.4887 -0.138313,0.54403 -0.682343,1.18949 -1.124944,1.35546 -2.664825,2.19456 -3.891198,2.19456 -1.641311,0 -2.406641,-1.38313 -2.406641,-3.0521 0,-1.41079 0.86676,-5.01614 1.705857,-6.42693 1.346243,-2.24989 2.849242,-2.89535 3.946523,-2.89535 v -0.89442 c -4.02029,0 -8.224997,4.29692 -8.224997,8.8889 0,3.31028 2.240666,5.27432 4.877829,5.27432 1.484556,0 2.895346,-0.73766 4.020289,-1.73352 l -0.700784,2.88613 c -0.359613,1.355464 -0.580913,2.213003 -1.807286,3.310283 -1.41079,1.180269 -2.793917,1.180269 -3.596131,1.180269 -1.475335,0 -1.890274,-0.08299 -2.461966,-0.21208 0.783772,-0.387275 1.014293,-1.152605 1.014293,-1.613648 0,-0.76533 -0.599355,-1.180268 -1.254035,-1.180268 -0.885202,0 -1.825728,0.728447 -1.825728,1.954819 0,1.936378 2.766254,1.964041 4.56432,1.964041 5.043803,0 7.192261,-2.563396 7.644082,-4.407565 z"
         inkscape:connector-curvature="0"
         style="font-style:normal;font-variant:normal;font-weight:normal;font-stretch:normal;letter-spacing:normal;word-spacing:normal;text-anchor:start;fill:#000000;fill-opacity:1;fill-rule:evenodd;stroke:#000000;stroke-width:0;stroke-linecap:butt;stroke-linejoin:miter;stroke-miterlimit:10.43299961;stroke-dasharray:none;stroke-dashoffset:0;stroke-opacity:1" />
    </g>
    <g
       transform="translate(477.35992,197.90185)"
       id="g3880">
      <polygon
         id="polygon950"
         points="629.94,448.19 611.96,448.19 611.96,446.64 629.94,446.64 "
         style="font-style:normal;font-variant:normal;font-weight:normal;font-stretch:normal;letter-spacing:normal;word-spacing:normal;text-anchor:start;fill:#000000;fill-opacity:1;fill-rule:evenodd;stroke:#000000;stroke-width:0;stroke-linecap:butt;stroke-linejoin:miter;stroke-miterlimit:10.43299961;stroke-dasharray:none;stroke-dashoffset:0;stroke-opacity:1"
         transform="matrix(0.92208478,0,0,-0.92208478,-503.93919,265.78953)" />
      <path
         id="path952"
         d="m 60.791634,-123.68986 h 4.453669 c 3.457818,0 3.817431,0.73767 3.817431,2.06547 0,0.33195 0,0.87598 -0.313509,2.24989 -0.101429,0.23052 -0.147533,0.41493 -0.147533,0.51636 0,0.35962 0.276625,0.54403 0.55325,0.54403 0.461043,0 0.461043,-0.13831 0.691564,-0.96818 l 2.535733,-9.96774 c 0.129092,-0.49793 0.129092,-0.59936 0.129092,-0.72845 0,-0.0922 -0.09221,-0.50715 -0.553251,-0.50715 -0.461042,0 -0.497926,0.23053 -0.691563,0.96819 -0.958969,3.56847 -2.019366,4.40757 -5.919785,4.40757 h -4.177044 l 2.941451,-11.67359 c 0.396496,-1.61365 0.461042,-1.78885 2.471187,-1.78885 h 6.067318 c 5.652379,0 6.703556,1.51222 6.703556,5.04381 0,1.06961 0,1.24481 -0.129092,2.48962 -0.101429,0.59936 -0.101429,0.68235 -0.101429,0.82988 0,0.23052 0.138313,0.54403 0.562472,0.54403 0.497925,0 0.54403,-0.27663 0.627017,-1.15261 l 0.922085,-7.93915 c 0.147534,-1.23559 -0.08299,-1.23559 -1.235594,-1.23559 H 57.499791 c -0.922085,0 -1.383127,0 -1.383127,0.92209 0,0.49792 0.414938,0.49792 1.281698,0.49792 1.696636,0 2.978333,0 2.978333,0.82066 0,0.19363 0,0.27662 -0.230521,1.11572 l -6.048876,24.28771 c -0.461042,1.79807 -0.562472,2.15768 -4.195486,2.15768 -0.774551,0 -1.281698,0 -1.281698,0.8852 0,0.54403 0.54403,0.54403 0.691564,0.54403 1.327802,0 4.721074,-0.14753 6.067318,-0.14753 1.512219,0 5.32965,0.14753 6.841869,0.14753 0.414938,0 0.968189,0 0.968189,-0.87598 0,-0.35961 -0.276625,-0.45182 -0.276625,-0.50714 -0.147534,-0.0461 -0.230522,-0.0461 -1.281698,-0.0461 -1.023514,0 -1.254036,0 -2.3882,-0.083 -1.346244,-0.14753 -1.475336,-0.33195 -1.475336,-0.92208 0,-0.083 0,-0.37806 0.175197,-1.05118 z"
         inkscape:connector-curvature="0"
         style="font-style:normal;font-variant:normal;font-weight:normal;font-stretch:normal;letter-spacing:normal;word-spacing:normal;text-anchor:start;fill:#000000;fill-opacity:1;fill-rule:evenodd;stroke:#000000;stroke-width:0;stroke-linecap:butt;stroke-linejoin:miter;stroke-miterlimit:10.43299961;stroke-dasharray:none;stroke-dashoffset:0;stroke-opacity:1" />
      <path
         id="path954"
         d="m 93.507202,-113.75901 0.0092,-0.0461 0.0092,-0.0369 0.01844,-0.0461 0.0092,-0.0369 0.0092,-0.0369 v -0.0369 l 0.0092,-0.0277 0.0092,-0.0369 0.0092,-0.0277 v -0.0277 l 0.0092,-0.0277 0.0092,-0.0277 v -0.0184 l 0.0092,-0.0277 v -0.0184 -0.0184 l 0.0092,-0.0184 v -0.0185 -0.0184 -0.0184 -0.009 l 0.0092,-0.0184 v -0.009 -0.009 -0.009 -0.009 -0.009 -0.009 -0.009 0 -0.009 -0.009 c 0,-0.70078 -0.571692,-1.01429 -1.097281,-1.01429 -0.728446,0 -1.337022,0.59935 -1.466114,1.21715 -0.54403,-0.87598 -1.641311,-1.82573 -3.310285,-1.82573 v 0.89442 c 2.240666,0 2.858463,2.40664 2.858463,2.73859 0,0.0553 0,0.11066 -0.09221,0.47027 l -1.447673,5.78147 c -0.129092,0.4887 -0.129092,0.54403 -0.673122,1.18949 -1.124944,1.35546 -2.664825,2.19456 -3.891198,2.19456 -1.641311,0 -2.406641,-1.38313 -2.406641,-3.0521 0,-1.41079 0.866759,-5.01614 1.696636,-6.42693 1.355464,-2.24989 2.858462,-2.89535 3.955743,-2.89535 v -0.89442 c -4.020289,0 -8.234217,4.29692 -8.234217,8.8889 0,3.31028 2.249887,5.27432 4.88705,5.27432 1.484556,0 2.895346,-0.73766 4.020289,-1.73352 l -0.710005,2.88613 c -0.359613,1.355464 -0.571693,2.213003 -1.798065,3.310283 -1.41079,1.180269 -2.793917,1.180269 -3.605352,1.180269 -1.466115,0 -1.881053,-0.08299 -2.461966,-0.21208 0.792993,-0.387275 1.023514,-1.152605 1.023514,-1.613648 0,-0.76533 -0.599355,-1.180268 -1.254035,-1.180268 -0.894423,0 -1.825728,0.728447 -1.825728,1.954819 0,1.936378 2.766254,1.964041 4.564319,1.964041 5.043804,0 7.192262,-2.563396 7.634862,-4.407565 z"
         inkscape:connector-curvature="0"
         style="font-style:normal;font-variant:normal;font-weight:normal;font-stretch:normal;letter-spacing:normal;word-spacing:normal;text-anchor:start;fill:#000000;fill-opacity:1;fill-rule:evenodd;stroke:#000000;stroke-width:0;stroke-linecap:butt;stroke-linejoin:miter;stroke-miterlimit:10.43299961;stroke-dasharray:none;stroke-dashoffset:0;stroke-opacity:1" />
    </g>
    <path
       style="font-style:normal;font-variant:normal;font-weight:normal;font-stretch:normal;letter-spacing:normal;word-spacing:normal;text-anchor:start;fill:#000000;fill-opacity:1;fill-rule:evenodd;stroke:#000000;stroke-width:0;stroke-linecap:butt;stroke-linejoin:miter;stroke-miterlimit:10.43299961;stroke-dasharray:none;stroke-dashoffset:0;stroke-opacity:1"
       inkscape:connector-curvature="0"
       d="m 245.59506,180.12371 v -0.28585 l -0.009,-0.3135 -0.009,-0.33196 -0.0277,-0.34117 -0.0277,-0.35961 -0.0277,-0.35961 -0.0461,-0.37806 -0.0553,-0.37805 -0.0553,-0.38728 -0.0738,-0.39649 -0.083,-0.38728 -0.0922,-0.3965 -0.10143,-0.38727 -0.11987,-0.38728 -0.12909,-0.37805 -0.14753,-0.37806 -0.14754,-0.36883 -0.17519,-0.35039 -0.18442,-0.34117 -0.20286,-0.33196 -0.21208,-0.3135 -0.23052,-0.29507 -0.24896,-0.27663 -0.26741,-0.24896 -0.28584,-0.23052 -0.15676,-0.11065 -0.14753,-0.0922 -0.16597,-0.0922 -0.15676,-0.0922 -0.1752,-0.0738 -0.17519,-0.0738 -0.1752,-0.0645 -0.18441,-0.0553 -0.19364,-0.0461 -0.19364,-0.0461 -0.20286,-0.0277 -0.20286,-0.0184 -0.21208,-0.0185 h -0.21208 l -0.0461,1.00508 c 2.24989,0 2.52651,2.94145 2.52651,5.56017 0,2.24989 -0.36883,4.6012 -1.47533,9.14708 h -9.58969 c 0.77456,-2.95067 1.69664,-6.62057 3.52237,-9.88475 1.25403,-2.24067 2.94145,-4.8225 5.01614,-4.8225 l 0.0461,-1.00508 c -6.38082,0 -13.46243,12.94608 -13.46243,23.46706 0,4.32458 1.3278,9.42371 5.52328,9.42371 v -1.01429 c -1.53066,0 -2.48963,-1.33703 -2.48963,-5.59706 0,-1.93638 0.26741,-4.6012 1.46612,-9.09175 h 9.56202 c -0.49793,2.10235 -1.46612,6.00277 -3.2273,9.32227 -1.5952,3.12587 -3.33795,5.36654 -5.31121,5.36654 v 1.01429 c 6.46382,0 13.45322,-13.18581 13.45322,-23.47628 z"
       id="path960" />
    <path
       sodipodi:nodetypes="cc"
       inkscape:connector-curvature="0"
       id="path3439"
       d="M 157.33607,207.08425 C 262.21209,177.87906 240.40343,81.360663 240.40343,81.360663"
       style="fill:none;fill-rule:evenodd;stroke:#000000;stroke-width:1.82000005;stroke-linecap:butt;stroke-linejoin:miter;stroke-miterlimit:3;stroke-dasharray:none;stroke-opacity:1;marker-end:url(#marker3443)" />
    <path
       sodipodi:nodetypes="cc"
       inkscape:connector-curvature="0"
       id="path3694"
       d="M 437.71934,-82.831653 389.96195,-200.45912"
       style="fill:none;fill-rule:evenodd;stroke:#000000;stroke-width:2.0999999;stroke-linecap:butt;stroke-linejoin:miter;stroke-miterlimit:4;stroke-dasharray:none;stroke-opacity:1;marker-end:url(#Arrow2Lend)" />
    <path
       sodipodi:nodetypes="cc"
       inkscape:connector-curvature="0"
       id="path3694-5"
       d="M 510.51863,101.106 458.74532,-28.515954"
       style="fill:none;fill-rule:evenodd;stroke:#000000;stroke-width:2.0999999;stroke-linecap:butt;stroke-linejoin:miter;stroke-miterlimit:4;stroke-dasharray:none;stroke-opacity:1;marker-start:url(#marker3849)" />
    <path
       sodipodi:nodetypes="cc"
       inkscape:connector-curvature="0"
       id="path3711"
       d="M 458.74532,-28.515954 462.2846,150.62614"
       style="fill:none;fill-rule:evenodd;stroke:#000000;stroke-width:2.0999999;stroke-linecap:butt;stroke-linejoin:miter;stroke-miterlimit:4;stroke-dasharray:none;stroke-opacity:1;marker-end:url(#marker3755)" />
    <path
       sodipodi:open="true"
       d="M 458.68875,3.6044129 A 65.068893,13.090784 0 0 1 501.96269,15.938878 65.068893,13.090784 0 0 1 458.69,28.273519 65.068893,13.090784 0 0 1 386.42668,24.202315 65.068893,13.090784 0 0 1 381.28852,9.1402795"
       sodipodi:end="3.6876857"
       sodipodi:start="5.0539432"
       sodipodi:ry="13.090784"
       sodipodi:rx="65.068893"
       sodipodi:cy="15.939011"
       sodipodi:cx="436.8938"
       sodipodi:type="arc"
       id="path4040"
       style="opacity:1;fill:none;fill-opacity:1;fill-rule:nonzero;stroke:#000000;stroke-width:2.0999999;stroke-linecap:square;stroke-linejoin:miter;stroke-miterlimit:4;stroke-dasharray:none;stroke-dashoffset:0;stroke-opacity:1;marker-start:url(#marker4062)"
       transform="rotate(-16.071481)" />
    <g
       id="g6598"
       transform="matrix(0.74719065,0,0,0.74719065,230.18801,-427.00609)">
      <g
         word-spacing="normal"
         letter-spacing="normal"
         font-size-adjust="none"
         font-stretch="normal"
         font-weight="normal"
         font-variant="normal"
         font-style="normal"
         stroke-miterlimit="10.433"
         xml:space="preserve"
         transform="matrix(1.1338583,0,0,-1.1338583,-198.4252,841.88976)"
         id="content"
         style="font-style:normal;font-variant:normal;font-weight:normal;font-stretch:normal;letter-spacing:normal;word-spacing:normal;text-anchor:start;fill:none;fill-opacity:1;fill-rule:evenodd;stroke:#000000;stroke-linecap:butt;stroke-linejoin:miter;stroke-miterlimit:10.43299961;stroke-dasharray:none;stroke-dashoffset:0;stroke-opacity:1"><path
           id="path6595"
           d="m 485.66,424.73 v 0.21 l -0.01,0.2 -0.01,0.2 -0.02,0.19 -0.02,0.18 -0.03,0.18 -0.03,0.17 -0.04,0.16 -0.04,0.16 -0.04,0.16 -0.05,0.14 -0.05,0.14 -0.05,0.13 -0.06,0.13 -0.07,0.12 -0.06,0.12 -0.07,0.1 -0.07,0.1 -0.08,0.1 -0.08,0.09 -0.08,0.08 -0.08,0.07 -0.08,0.07 -0.09,0.06 -0.09,0.05 -0.09,0.05 -0.1,0.04 -0.09,0.03 -0.1,0.02 -0.1,0.02 -0.1,0.01 h -0.1 c -1.3,0 -2.64,-1.18 -2.64,-2.34 0,-0.48 0.23,-1.03 0.73,-1.48 0.86,-0.75 1.75,-2.1 1.75,-4.19 0,-2 -0.95,-4.83 -2.48,-7.13 -1.5,-2.14 -3.35,-3.82 -5.69,-3.82 -2.85,0 -4.39,1.78 -4.83,4.46 0.55,1.3 1.69,4.49 1.69,5.9 0,0.59 -0.25,1.09 -0.89,1.09 -0.41,0 -0.96,-0.11 -1.35,-0.84 -0.54,-1 -1.15,-4.24 -1.15,-6.04 -1.64,-2.34 -3.63,-4.57 -6.77,-4.57 -3.3,0 -4.34,2.93 -4.34,5.71 0,6.24 5.09,11.47 5.09,12.11 0,0.55 -0.41,0.96 -0.95,0.96 -0.66,0 -1,-0.66 -1.3,-1.11 -2.55,-3.69 -4.44,-9.61 -4.44,-14.14 0,-3.44 1.16,-7.13 5.24,-7.13 3.53,0 5.87,2.49 7.67,5.24 0.45,-2.89 2.39,-5.24 5.48,-5.24 3.89,0 6.29,3.03 8.07,6.78 1.2,2.44 3.09,9.21 3.09,12.3 z"
           inkscape:connector-curvature="0"
           style="fill:#000000;stroke-width:0" /></g>    </g>
    <circle
       style="opacity:1;fill:none;fill-opacity:1;fill-rule:nonzero;stroke:#000000;stroke-width:2.61789894;stroke-linecap:square;stroke-linejoin:miter;stroke-miterlimit:4;stroke-dasharray:none;stroke-dashoffset:0;stroke-opacity:1"
       id="path858-7"
       cx="150.34804"
       cy="110.29892"
       r="8.8430529" />
    <g
       id="g11194"
       transform="translate(-68.855818,216.03629)">
      <path
         id="path956"
         d="m 126.65615,-125.89364 h 7.71785 c 0.60857,0 2.24989,0 2.24989,-1.56755 0,-1.09728 -0.95897,-1.09728 -1.82573,-1.09728 h -12.87231 c -0.92208,0 -2.7017,0 -4.72107,2.1669 -1.53066,1.64131 -2.81236,3.84509 -2.81236,4.13094 0,0.0461 0,0.4426 0.55325,0.4426 0.36884,0 0.46105,-0.16597 0.72845,-0.54403 2.26833,-3.53158 4.86861,-3.53158 5.8368,-3.53158 h 3.81743 l -4.509,14.74413 c -0.17519,0.54403 -0.4426,1.51222 -0.4426,1.69664 0,0.50715 0.31351,1.23559 1.31858,1.23559 1.52144,0 1.75196,-1.2817 1.89028,-1.97326 z"
         inkscape:connector-curvature="0"
         style="font-style:normal;font-variant:normal;font-weight:normal;font-stretch:normal;letter-spacing:normal;word-spacing:normal;text-anchor:start;fill:#000000;fill-opacity:1;fill-rule:evenodd;stroke:#000000;stroke-width:0;stroke-linecap:butt;stroke-linejoin:miter;stroke-miterlimit:10.43299961;stroke-dasharray:none;stroke-dashoffset:0;stroke-opacity:1" />
      <path
         id="path958"
         d="m 146.73916,-114.17395 -0.0645,-0.10142 -0.0645,-0.10143 -0.0645,-0.0922 -0.0738,-0.0922 -0.0738,-0.0922 -0.083,-0.0922 -0.0738,-0.083 -0.083,-0.0922 -0.083,-0.083 -0.0922,-0.0738 -0.0922,-0.083 -0.083,-0.0738 -0.10143,-0.0738 -0.0922,-0.0738 -0.10143,-0.0645 -0.10143,-0.0738 -0.10143,-0.0553 -0.11065,-0.0646 -0.11065,-0.0553 -0.11065,-0.0461 -0.11987,-0.0553 -0.11065,-0.0461 -0.11987,-0.0369 -0.12909,-0.0369 -0.11987,-0.0369 -0.12909,-0.0277 -0.12909,-0.0277 -0.13832,-0.0185 -0.12909,-0.0184 -0.13831,-0.009 -0.13831,-0.009 h -0.14754 v 0.89442 c 2.24989,0 2.86769,2.43431 2.86769,2.79392 0,0.12909 -0.0738,0.35961 -0.10143,0.4426 l -1.51222,6.01199 c -0.21208,0.90365 -0.92209,1.53989 -1.63209,2.15768 -0.28585,0.24896 -1.57677,1.2817 -2.9599,1.2817 -1.18948,0 -2.34209,-0.82988 -2.34209,-3.10743 0,-1.71507 0.92208,-5.24666 1.67819,-6.52836 1.46612,-2.58183 3.10743,-3.0521 4.00185,-3.0521 v -0.89442 c -4.10328,0 -8.28032,4.52744 -8.28032,9.14708 0,3.11665 2.08391,5.32965 4.85017,5.32965 1.73352,0 3.2734,-0.99585 4.55509,-2.24988 0.6178,1.93637 2.48041,2.24988 3.31029,2.24988 1.15261,0 1.96404,-0.70078 2.53573,-1.69663 0.71001,-1.25404 1.12495,-3.08899 1.12495,-3.21808 0,-0.41494 -0.41494,-0.41494 -0.50715,-0.41494 -0.46104,0 -0.48871,0.12909 -0.70079,0.99585 -0.38727,1.53989 -1.00507,3.43938 -2.35131,3.43938 -0.82988,0 -1.0604,-0.70078 -1.0604,-1.56754 0,-0.54403 0.25818,-1.71508 0.48871,-2.55418 0.21208,-0.85754 0.54403,-2.1669 0.70078,-2.8769 l 0.63624,-2.45275 c 0.20286,-0.82988 0.58091,-2.34209 0.58091,-2.50807 0,-0.70078 -0.58091,-1.01429 -1.08806,-1.01429 -0.54403,0 -1.29092,0.38727 -1.48455,1.28169 z"
         inkscape:connector-curvature="0"
         style="font-style:normal;font-variant:normal;font-weight:normal;font-stretch:normal;letter-spacing:normal;word-spacing:normal;text-anchor:start;fill:#000000;fill-opacity:1;fill-rule:evenodd;stroke:#000000;stroke-width:0;stroke-linecap:butt;stroke-linejoin:miter;stroke-miterlimit:10.43299961;stroke-dasharray:none;stroke-dashoffset:0;stroke-opacity:1" />
    </g>
    <path
       style="fill:none;fill-rule:evenodd;stroke:#ffffff;stroke-width:4.11752129;stroke-linecap:butt;stroke-linejoin:miter;stroke-miterlimit:4;stroke-dasharray:none;stroke-opacity:1"
       d="m 174.92139,98.793943 c 0.20846,-0.06367 9.94696,-4.521847 9.94696,-4.521847"
       id="path7056"
       inkscape:connector-curvature="0" />
    <path
       sodipodi:nodetypes="cc"
       inkscape:connector-curvature="0"
       id="path3439-9"
       d="m 101.34101,98.578694 c 14.34061,79.493046 85.63005,69.477966 93.97841,8.618396"
       style="fill:none;fill-rule:evenodd;stroke:#000000;stroke-width:2.0999999;stroke-linecap:butt;stroke-linejoin:miter;stroke-miterlimit:3;stroke-dasharray:none;stroke-opacity:1;marker-start:url(#marker3465-1)" />
    <g
       id="g11365"
       transform="translate(9.6308329)">
      <path
         sodipodi:nodetypes="cccccc"
         inkscape:connector-curvature="0"
         id="path817"
         d="M 246.18092,428.85495 H 32.743303 V 399.16981 H 120.66297 V 77.871922 H 161.48"
         style="fill:none;fill-rule:evenodd;stroke:#000000;stroke-width:3.46326208px;stroke-linecap:butt;stroke-linejoin:miter;stroke-opacity:1" />
      <path
         sodipodi:nodetypes="cccccc"
         inkscape:connector-curvature="0"
         id="path817-3"
         d="M 35.96205,428.85495 H 249.39967 V 399.16981 H 161.48 V 77.871922 h -40.81703"
         style="fill:none;fill-rule:evenodd;stroke:#000000;stroke-width:3.46326208px;stroke-linecap:butt;stroke-linejoin:miter;stroke-opacity:1" />
    </g>
    <path
       style="opacity:1;fill:#050000;fill-opacity:1;fill-rule:nonzero;stroke:#070000;stroke-width:2.55356598;stroke-linecap:square;stroke-linejoin:miter;stroke-miterlimit:3;stroke-dasharray:none;stroke-dashoffset:0;stroke-opacity:1"
       d="m 574.81162,969.59013 c -6.05155,-1.26031 -10.9576,-3.35309 -15.56062,-6.63774 -15.88654,-11.33639 -20.81656,-33.57264 -11.28575,-50.90297 5.61882,-10.21695 16.28827,-17.95103 26.71644,-19.36622 l 2.46865,-0.33501 v 5.72109 5.7211 l -2.15128,0.344 c -4.23771,0.67764 -9.64071,3.67757 -13.40737,7.44422 -5.95581,5.95582 -8.72176,13.12793 -8.17698,21.20294 0.81423,12.06877 8.72041,21.70769 20.48925,24.97972 l 3.24638,0.90258 v 4.85209 4.8521 h 3.89788 3.89787 v -4.91727 -4.91727 l 2.20879,-0.56406 c 7.31281,-1.86747 13.30627,-6.17322 17.21772,-12.36936 4.7101,-7.46128 5.26643,-18.86257 1.30533,-26.75086 -1.89543,-3.77463 -5.20456,-7.64325 -8.62666,-10.08521 -3.0761,-2.19507 -9.12571,-4.80487 -11.19568,-4.82981 -0.81041,-0.01 -0.9095,-0.63385 -0.9095,-5.72784 0,-6.53977 -0.27595,-6.26589 4.95804,-4.92089 10.56281,2.71437 19.7354,10.24259 24.62388,20.20957 3.06707,6.25333 3.87299,9.85988 3.90017,17.45344 0.0279,7.79814 -0.74557,11.14461 -4.20433,18.19006 -2.04996,4.17575 -3.15212,5.66199 -7.14555,9.63557 -7.74866,7.71017 -16.0431,11.21617 -26.24315,11.09279 -2.74125,-0.0332 -5.45184,-0.1577 -6.02353,-0.27676 z"
       id="path11369"
       inkscape:connector-curvature="0"
       transform="matrix(0.37041666,0,0,0.37041666,-64.821181,-234.59011)" />
  </g>
</svg>
